<svg width="506" height="123" viewBox="0 0 506 123" fill="none" xmlns="http://www.w3.org/2000/svg">
<path d="M0 13.8432C0 6.19778 6.19354 0 13.8336 0C21.4738 0 27.6673 6.1978 27.6673 13.8432V109.157C27.6673 116.802 21.4738 123 13.8336 123C6.19354 123 0 116.802 0 109.157V13.8432Z" fill="#FFE500"/>
<path d="M77.2882 82.0195C79.0457 82.0195 80.5221 81.8084 81.7172 81.3863C82.9124 80.9642 83.8614 80.4014 84.5645 79.6979C85.2909 78.9944 85.8065 78.1736 86.1111 77.2356C86.4392 76.2976 86.6032 75.301 86.6032 74.2457C86.6032 73.1436 86.4275 72.1587 86.076 71.291C85.7244 70.3999 85.1738 69.6495 84.4239 69.0398C83.674 68.4066 82.7015 67.9259 81.5063 67.5976C80.3346 67.2693 78.9169 67.1051 77.253 67.1051H67.7271V82.0195H77.2882ZM67.7271 45.8593V60.5625H75.2494C78.4833 60.5625 80.9205 59.9763 82.5609 58.8038C84.2247 57.6313 85.0566 55.767 85.0566 53.2109C85.0566 50.561 84.3067 48.6733 82.8069 47.5477C81.3071 46.4221 78.9637 45.8593 75.7767 45.8593H67.7271ZM75.7767 38.5428C79.1043 38.5428 81.9516 38.8594 84.3184 39.4926C86.6852 40.1257 88.6186 41.0285 90.1183 42.201C91.6416 43.3736 92.7547 44.7923 93.4577 46.4573C94.1607 48.1222 94.5122 49.9982 94.5122 52.0853C94.5122 53.2813 94.3365 54.4303 93.985 55.5325C93.6334 56.6112 93.0827 57.6313 92.3328 58.5927C91.6064 59.5307 90.669 60.3867 89.5208 61.1605C88.3959 61.9344 87.0485 62.591 85.4784 63.1303C92.4617 64.7015 95.9534 68.477 95.9534 74.4568C95.9534 76.6142 95.5433 78.6075 94.7231 80.4366C93.9029 82.2657 92.7078 83.8486 91.1377 85.1852C89.5676 86.4984 87.6343 87.5303 85.3378 88.2807C83.0413 89.0311 80.4166 89.4063 77.4639 89.4063H58.2715V38.5428H75.7767Z" fill="black"/>
<path d="M114.035 46.0703V60.1756H131.822V67.4569H114.035V81.8436H136.602V89.4063H104.545V38.5428H136.602V46.0703H114.035Z" fill="black"/>
<path d="M171.837 70.2006L165.651 53.2813C165.346 52.5309 165.03 51.6397 164.702 50.6079C164.374 49.5761 164.046 48.4622 163.718 47.2663C163.413 48.4622 163.097 49.5879 162.768 50.6431C162.44 51.6749 162.124 52.5778 161.819 53.3516L155.668 70.2006H171.837ZM188.534 89.4063H181.223C180.403 89.4063 179.735 89.2069 179.219 88.8083C178.704 88.3862 178.317 87.8703 178.059 87.2606L174.263 76.8839H153.207L149.411 87.2606C149.224 87.7999 148.86 88.2924 148.321 88.7379C147.782 89.1835 147.115 89.4063 146.318 89.4063H138.936L158.937 38.5428H168.568L188.534 89.4063Z" fill="black"/>
<path d="M223.568 81.5974V89.4063H193.795V38.5428H203.251V81.5974H223.568Z" fill="black"/>
<path d="M285.403 81.0346C285.637 81.0346 285.836 81.1166 286 81.2808L287.406 82.7933C286.375 83.8955 285.251 84.8921 284.032 85.7832C282.837 86.6509 281.513 87.4013 280.06 88.0344C278.63 88.6441 277.049 89.1131 275.314 89.4415C273.604 89.7932 271.717 89.9691 269.655 89.9691C266.21 89.9691 263.047 89.3711 260.164 88.1751C257.305 86.9557 254.845 85.2439 252.783 83.0395C250.72 80.8118 249.115 78.1267 247.967 74.9844C246.842 71.8421 246.28 68.348 246.28 64.5022C246.28 60.7267 246.866 57.2795 248.037 54.1606C249.209 51.0418 250.849 48.3684 252.958 46.1407C255.067 43.8895 257.598 42.1541 260.551 40.9347C263.504 39.6919 266.761 39.0704 270.323 39.0704C273.721 39.0704 276.732 39.5981 279.357 40.6533C281.981 41.7086 284.372 43.1977 286.528 45.1206L285.438 46.7035C285.251 46.9849 284.958 47.1256 284.559 47.1256C284.278 47.1256 283.821 46.8676 283.188 46.3517C282.556 45.8358 281.677 45.273 280.552 44.6633C279.427 44.0302 278.021 43.4556 276.334 42.9397C274.67 42.4238 272.666 42.1659 270.323 42.1659C267.324 42.1659 264.57 42.6818 262.063 43.7136C259.579 44.7454 257.434 46.2227 255.63 48.1457C253.849 50.0686 252.455 52.4136 251.447 55.1807C250.439 57.9479 249.935 61.055 249.935 64.5022C249.935 68.0197 250.439 71.162 251.447 73.9292C252.478 76.6963 253.884 79.0413 255.665 80.9642C257.446 82.8637 259.543 84.3293 261.957 85.3611C264.394 86.3695 267.019 86.8737 269.831 86.8737C271.612 86.8737 273.194 86.7564 274.576 86.5219C275.982 86.2874 277.271 85.9357 278.443 85.4666C279.615 84.9976 280.704 84.4231 281.712 83.7431C282.72 83.063 283.716 82.2657 284.7 81.3511C284.817 81.2573 284.934 81.187 285.051 81.1401C285.169 81.0697 285.286 81.0346 285.403 81.0346Z" fill="black"/>
<path d="M298.296 62.8489C298.835 61.4185 299.444 60.1522 300.124 59.05C300.827 57.9244 301.624 56.9747 302.514 56.2008C303.428 55.427 304.436 54.8407 305.537 54.442C306.662 54.0199 307.904 53.8089 309.263 53.8089C309.99 53.8089 310.704 53.8792 311.408 54.0199C312.111 54.1372 312.732 54.36 313.271 54.6883L312.989 57.0098C312.872 57.385 312.65 57.5726 312.321 57.5726C312.04 57.5726 311.607 57.4906 311.021 57.3264C310.458 57.1623 309.709 57.0802 308.771 57.0802C307.412 57.0802 306.205 57.2912 305.151 57.7133C304.12 58.112 303.182 58.7217 302.339 59.5425C301.518 60.3632 300.792 61.3833 300.159 62.6027C299.55 63.7987 298.987 65.1822 298.472 66.7534V89.4063H295.097V54.4069H296.89C297.289 54.4069 297.57 54.4889 297.734 54.6531C297.898 54.8172 298.003 55.0986 298.05 55.4973L298.296 62.8489Z" fill="black"/>
<path d="M342.495 68.3715C342.495 66.4954 342.225 64.8188 341.686 63.3414C341.171 61.8406 340.433 60.5743 339.472 59.5425C338.511 58.5107 337.363 57.7251 336.027 57.1857C334.715 56.6229 333.262 56.3415 331.668 56.3415C329.864 56.3415 328.247 56.6229 326.817 57.1857C325.388 57.7485 324.146 58.5576 323.091 59.6128C322.06 60.6681 321.228 61.9344 320.596 63.4117C319.963 64.8891 319.541 66.5423 319.33 68.3715H342.495ZM319.154 70.5172V71.1855C319.154 73.8119 319.459 76.1217 320.068 78.115C320.678 80.1083 321.545 81.785 322.67 83.1451C323.794 84.4817 325.154 85.4901 326.747 86.1701C328.341 86.8502 330.122 87.1902 332.09 87.1902C333.848 87.1902 335.371 87.0026 336.66 86.6274C337.949 86.2288 339.027 85.7949 339.894 85.3259C340.784 84.8335 341.487 84.3997 342.003 84.0245C342.518 83.6258 342.893 83.4265 343.128 83.4265C343.432 83.4265 343.667 83.5437 343.831 83.7782L344.744 84.9038C344.182 85.6073 343.432 86.2639 342.495 86.8737C341.581 87.4834 340.55 88.011 339.402 88.4565C338.277 88.8786 337.058 89.2187 335.746 89.4766C334.457 89.7346 333.156 89.8636 331.844 89.8636C329.454 89.8636 327.274 89.4532 325.306 88.6324C323.337 87.7882 321.65 86.5688 320.244 84.9742C318.838 83.3796 317.748 81.4332 316.975 79.1351C316.225 76.8135 315.85 74.1637 315.85 71.1855C315.85 68.6763 316.202 66.3665 316.905 64.2559C317.631 62.122 318.662 60.2929 319.998 58.7686C321.357 57.2209 323.009 56.0132 324.954 55.1456C326.923 54.2779 329.149 53.8441 331.633 53.8441C333.602 53.8441 335.429 54.1841 337.117 54.8641C338.804 55.5442 340.269 56.5408 341.511 57.854C342.753 59.1438 343.725 60.7384 344.428 62.6379C345.155 64.5374 345.518 66.7182 345.518 69.1805C345.518 69.6964 345.448 70.0481 345.307 70.2357C345.166 70.4233 344.932 70.5172 344.604 70.5172H319.154Z" fill="black"/>
<path d="M374.2 72.487C370.872 72.6042 368.002 72.8739 365.588 73.296C363.198 73.6946 361.218 74.2457 359.647 74.9492C358.101 75.6527 356.952 76.4969 356.203 77.4818C355.453 78.4433 355.078 79.5455 355.078 80.7883C355.078 81.9608 355.265 82.9809 355.64 83.8486C356.039 84.6928 356.554 85.3963 357.187 85.9591C357.843 86.4985 358.593 86.8971 359.436 87.1551C360.28 87.413 361.159 87.542 362.073 87.542C363.432 87.542 364.674 87.4013 365.799 87.1199C366.947 86.815 368.002 86.4047 368.962 85.8887C369.947 85.3494 370.861 84.7162 371.704 83.9893C372.548 83.2623 373.38 82.4767 374.2 81.6325V72.487ZM353.637 59.3666C355.464 57.5375 357.386 56.1539 359.401 55.2159C361.417 54.2779 363.702 53.8089 366.256 53.8089C368.131 53.8089 369.771 54.1137 371.177 54.7234C372.583 55.3097 373.743 56.1656 374.657 57.2912C375.594 58.3934 376.297 59.7418 376.766 61.3364C377.235 62.9076 377.469 64.6663 377.469 66.6127V89.4063H376.133C375.43 89.4063 374.997 89.078 374.833 88.4214L374.341 83.9189C373.38 84.8569 372.419 85.7011 371.458 86.4516C370.521 87.202 369.537 87.8351 368.505 88.351C367.474 88.8669 366.361 89.2656 365.166 89.547C363.971 89.8284 362.659 89.9691 361.229 89.9691C360.034 89.9691 358.874 89.7932 357.749 89.4415C356.624 89.0897 355.617 88.5503 354.726 87.8234C353.859 87.0964 353.156 86.1701 352.617 85.0445C352.102 83.8955 351.844 82.5236 351.844 80.929C351.844 79.4517 352.266 78.0798 353.109 76.8135C353.953 75.5472 355.277 74.4451 357.081 73.507C358.886 72.569 361.194 71.8186 364.006 71.2558C366.842 70.693 370.24 70.3647 374.2 70.2709V66.6127C374.2 63.3766 373.497 60.8908 372.091 59.1555C370.708 57.3968 368.646 56.5174 365.904 56.5174C364.217 56.5174 362.776 56.7519 361.581 57.2209C360.409 57.6899 359.413 58.2058 358.593 58.7686C357.773 59.3314 357.105 59.8473 356.589 60.3163C356.074 60.7853 355.64 61.0198 355.289 61.0198C355.031 61.0198 354.82 60.9612 354.656 60.8439C354.492 60.7267 354.351 60.5743 354.234 60.3867L353.637 59.3666Z" fill="black"/>
<path d="M417.296 89.4063H413.922V57.9947H393.675V81.7381C393.675 82.6995 393.792 83.532 394.026 84.2355C394.284 84.9156 394.624 85.4784 395.046 85.9239C395.491 86.3695 396.006 86.6978 396.592 86.9088C397.178 87.1199 397.811 87.2254 398.49 87.2254C399.334 87.2254 400.061 87.1082 400.67 86.8737C401.279 86.6157 401.806 86.346 402.252 86.0646C402.697 85.7598 403.06 85.4901 403.341 85.2556C403.623 84.9976 403.845 84.8687 404.009 84.8687C404.197 84.8687 404.384 84.9859 404.572 85.2204L405.486 86.6978C404.595 87.6827 403.458 88.48 402.076 89.0897C400.717 89.6759 399.299 89.9691 397.823 89.9691C395.456 89.9691 393.604 89.3125 392.269 87.9993C390.956 86.686 390.3 84.6576 390.3 81.9139V57.9947H385.274C385.016 57.9947 384.805 57.9244 384.641 57.7837C384.477 57.643 384.395 57.4437 384.395 57.1857V55.8842L390.371 55.4621L391.214 42.9397C391.261 42.7287 391.355 42.5411 391.495 42.3769C391.636 42.2128 391.835 42.1307 392.093 42.1307H393.675V55.4973H417.296V89.4063ZM418.843 41.9196C418.843 42.3418 418.749 42.7404 418.562 43.1156C418.398 43.4674 418.163 43.7839 417.859 44.0653C417.577 44.3467 417.249 44.5695 416.874 44.7337C416.5 44.8978 416.101 44.9799 415.679 44.9799C415.258 44.9799 414.859 44.8978 414.484 44.7337C414.109 44.5695 413.781 44.3467 413.5 44.0653C413.219 43.7839 412.996 43.4674 412.832 43.1156C412.668 42.7404 412.586 42.3418 412.586 41.9196C412.586 41.4975 412.668 41.0989 412.832 40.7237C412.996 40.325 413.219 39.985 413.5 39.7036C413.781 39.4222 414.109 39.1994 414.484 39.0353C414.859 38.8711 415.258 38.789 415.679 38.789C416.101 38.789 416.5 38.8711 416.874 39.0353C417.249 39.1994 417.577 39.4222 417.859 39.7036C418.163 39.985 418.398 40.325 418.562 40.7237C418.749 41.0989 418.843 41.4975 418.843 41.9196Z" fill="black"/>
<path d="M457.265 54.4069L442.502 89.4063H439.549L424.786 54.4069H427.422C427.75 54.4069 428.02 54.5007 428.23 54.6883C428.441 54.8524 428.582 55.04 428.652 55.2511L440.217 82.8637C440.568 83.8955 440.85 84.9156 441.061 85.9239C441.271 84.9156 441.564 83.8955 441.939 82.8637L453.539 55.2511C453.656 54.9931 453.809 54.7938 453.996 54.6531C454.207 54.4889 454.453 54.4069 454.734 54.4069H457.265Z" fill="black"/>
<path d="M488.18 68.3715C488.18 66.4954 487.91 64.8188 487.371 63.3414C486.855 61.8406 486.117 60.5743 485.157 59.5425C484.196 58.5107 483.047 57.7251 481.712 57.1857C480.399 56.6229 478.947 56.3415 477.353 56.3415C475.549 56.3415 473.932 56.6229 472.502 57.1857C471.073 57.7485 469.831 58.5576 468.776 59.6128C467.745 60.6681 466.913 61.9344 466.28 63.4117C465.648 64.8891 465.226 66.5423 465.015 68.3715H488.18ZM464.839 70.5172V71.1855C464.839 73.8119 465.144 76.1217 465.753 78.115C466.362 80.1083 467.229 81.785 468.354 83.1451C469.479 84.4817 470.838 85.4901 472.432 86.1701C474.025 86.8502 475.806 87.1902 477.775 87.1902C479.532 87.1902 481.056 87.0026 482.344 86.6274C483.633 86.2288 484.711 85.7949 485.578 85.3259C486.469 84.8335 487.172 84.3997 487.687 84.0245C488.203 83.6258 488.578 83.4265 488.812 83.4265C489.117 83.4265 489.351 83.5437 489.515 83.7782L490.429 84.9038C489.867 85.6073 489.117 86.2639 488.18 86.8737C487.266 87.4834 486.235 88.011 485.086 88.4565C483.961 88.8786 482.743 89.2187 481.431 89.4766C480.142 89.7346 478.841 89.8636 477.529 89.8636C475.138 89.8636 472.959 89.4532 470.991 88.6324C469.022 87.7882 467.335 86.5688 465.929 84.9742C464.523 83.3796 463.433 81.4332 462.66 79.1351C461.91 76.8135 461.535 74.1637 461.535 71.1855C461.535 68.6763 461.887 66.3665 462.59 64.2559C463.316 62.122 464.347 60.2929 465.683 58.7686C467.042 57.2209 468.694 56.0132 470.639 55.1456C472.608 54.2779 474.834 53.8441 477.318 53.8441C479.286 53.8441 481.114 54.1841 482.801 54.8641C484.489 55.5442 485.953 56.5408 487.195 57.854C488.437 59.1438 489.41 60.7384 490.113 62.6379C490.839 64.5374 491.203 66.7182 491.203 69.1805C491.203 69.6964 491.132 70.0481 490.992 70.2357C490.851 70.4233 490.617 70.5172 490.289 70.5172H464.839Z" fill="black"/>
<path d="M499.497 86.6978C499.497 86.2522 499.579 85.8301 499.743 85.4315C499.907 85.0328 500.13 84.6928 500.411 84.4114C500.716 84.1065 501.055 83.872 501.43 83.7079C501.829 83.5203 502.262 83.4265 502.731 83.4265C503.176 83.4265 503.598 83.5203 503.996 83.7079C504.395 83.872 504.735 84.1065 505.016 84.4114C505.32 84.6928 505.555 85.0328 505.719 85.4315C505.906 85.8301 506 86.2522 506 86.6978C506 87.1668 505.906 87.6006 505.719 87.9993C505.555 88.3745 505.32 88.7145 505.016 89.0193C504.735 89.3007 504.395 89.5235 503.996 89.6877C503.598 89.8518 503.176 89.9339 502.731 89.9339C501.817 89.9339 501.044 89.629 500.411 89.0193C499.802 88.3862 499.497 87.6123 499.497 86.6978Z" fill="black"/>
</svg>
